<svg version="1.1" xmlns="http://www.w3.org/2000/svg" xmlns:xlink="http://www.w3.org/1999/xlink" x="0px" y="0px"
	 width="822.829px" height="827.753px" viewBox="0 0 822.829 827.753" enable-background="new 0 0 822.829 827.753"
	 xml:space="preserve">
<g id="Layer_3">
	<polyline fill="#01653E" stroke="#01653E" stroke-width="20" stroke-miterlimit="10" points="410.508,10 276.549,10 143.902,10
		77.657,120 11.881,230.25 412.586,810.125 810.895,230.062 742.881,120.031 676.634,10 543.988,10 410.508,10 	"/>
	<path fill="#FF0000" stroke="#C1272D" stroke-width="18" stroke-linejoin="round" stroke-miterlimit="10" d="M410.268,9"/>
</g>
<g id="Layer_1">
		<polygon fill="#3E905E" stroke="#FFFFFF" stroke-width="6" stroke-linecap="round" stroke-linejoin="round" stroke-miterlimit="10" points="
		143.902,9 210.459,119.5 277.178,230 144.058,230 11.881,230 77.657,119.5 	"/>
		<polygon fill="#A4CEA9" stroke="#FFFFFF" stroke-width="6" stroke-linecap="round" stroke-linejoin="round" stroke-miterlimit="10" points="
		410.268,9 476.67,119.5 543.95,230 410.269,230 277.178,230 343.867,119.5 	"/>
		<polygon fill="#3E905E" stroke="#FFFFFF" stroke-width="6" stroke-linecap="round" stroke-linejoin="round" stroke-miterlimit="10" points="
		676.634,9 742.881,119.5 810.895,230 676.479,230 543.95,230 610.077,119.5 	"/>
		<polygon fill="#3E905E" stroke="#FFFFFF" stroke-width="6" stroke-linecap="round" stroke-linejoin="round" stroke-miterlimit="10" points="
		277.178,230 210.148,119.5 143.902,9 276.549,9 410.268,9 342.95,119.5 	"/>
		<polygon fill="#3E905E" stroke="#FFFFFF" stroke-width="6" stroke-linecap="round" stroke-linejoin="round" stroke-miterlimit="10" points="
		543.95,230 477.585,119.5 410.268,9 543.988,9 676.634,9 610.387,119.5 	"/>
		<polygon fill="#A4CEA9" stroke="#FFFFFF" stroke-width="6" stroke-linecap="round" stroke-linejoin="round" stroke-miterlimit="10" points="
		11.881,230 145.549,230 277.178,230 412.586,810 	"/>
		<polygon fill="#3E905E" stroke="#FFFFFF" stroke-width="6" stroke-linecap="round" stroke-linejoin="round" stroke-miterlimit="10" points="
		412.586,810 277.178,230 409.549,230 543.95,230 	"/>
		<polygon fill="#01653E" stroke="#FFFFFF" stroke-width="6" stroke-linecap="round" stroke-linejoin="round" stroke-miterlimit="10" points="
		412.586,811 543.95,231 679.549,231 810.895,231 	"/>
</g>
</svg>
