<svg xmlns="http://www.w3.org/2000/svg" width="822.829" height="827.753" viewBox="0 0 822.829 827.753">
  <g stroke-miterlimit="10">
    <path fill="#01653E" stroke="#01653E" stroke-width="20" d="M410.508 10H143.902L77.657 120 11.88 230.25l400.706 579.875 398.31-580.063-68.015-110.03L676.636 10H410.507"/>
    <g stroke="#FFF" stroke-width="6" stroke-linecap="round" stroke-linejoin="round">
      <path fill="#3E905E" d="M143.902 9l66.557 110.5L277.175 230H11.88l65.777-110.5z"/>
      <path fill="#A4CEA9" d="M410.268 9l66.402 110.5L543.95 230H277.178l66.69-110.5z"/>
      <path fill="#3E905E" d="M676.633 9l66.248 110.5L810.898 230H543.95l66.127-110.5zM277.178 230l-67.03-110.5L143.902 9h266.365L342.95 119.5z"/>
      <path fill="#3E905E" d="M543.95 230l-66.366-110.5L410.268 9h266.365l-66.246 110.5z"/>
      <path fill="#A4CEA9" d="M11.88 230h265.3l135.408 580z"/>
      <path fill="#3E905E" d="M412.586 810L277.178 230H543.95z"/>
      <path fill="#01653E" d="M412.586 811L543.95 231h266.945z"/>
    </g>
  </g>
  <g stroke-miterlimit="10">
    <path stroke="#000" stroke-width="20" d="M410.508 10H143.902L77.657 120 11.88 230.25l400.706 579.875 398.31-580.063-68.015-110.03L676.636 10H410.507"/>
    <g stroke="#FFF" stroke-width="6" stroke-linecap="round" stroke-linejoin="round">
      <path fill="#828282" d="M143.902 9l66.557 110.5L277.175 230H11.88l65.777-110.5z"/>
      <path fill="#CCC" d="M410.268 9l66.402 110.5L543.95 230H277.178l66.69-110.5z"/>
      <path fill="#828282" d="M676.633 9l66.248 110.5L810.898 230H543.95l66.127-110.5zM277.178 230l-67.03-110.5L143.902 9h266.365L342.95 119.5z"/>
      <path fill="#828282" d="M543.95 230l-66.366-110.5L410.268 9h266.365l-66.246 110.5z"/>
      <path fill="#CCC" d="M11.88 230h265.3l135.408 580z"/>
      <path fill="#828282" d="M412.586 810L277.178 230H543.95z"/>
      <path d="M412.586 811L543.95 231h266.945z"/>
    </g>
  </g>
  <g stroke-miterlimit="10">
    <path fill="#FFF" stroke="#767676" stroke-width="20" d="M410.508 10H143.902L77.657 120 11.88 230.25l400.706 579.875 398.31-580.063-68.015-110.03L676.636 10H410.507"/>
    <g stroke="#000" stroke-width="6" stroke-linecap="round" stroke-linejoin="round">
      <path fill="#B2B2B2" d="M143.902 9l66.557 110.5L277.175 230H11.88l65.777-110.5z"/>
      <path fill="#E3E3E3" d="M410.268 9l66.402 110.5L543.95 230H277.178l66.69-110.5z"/>
      <path fill="#B2B2B2" d="M676.633 9l66.248 110.5L810.898 230H543.95l66.127-110.5zM277.178 230l-67.03-110.5L143.902 9h266.365L342.95 119.5z"/>
      <path fill="#B2B2B2" d="M543.95 230l-66.366-110.5L410.268 9h266.365l-66.246 110.5z"/>
      <path fill="#E3E3E3" d="M11.88 230h265.3l135.408 580z"/>
      <path fill="#B2B2B2" d="M412.586 810L277.178 230H543.95z"/>
      <path fill="#767676" d="M412.586 811L543.95 231h266.945z"/>
    </g>
  </g>
</svg>
