<?xml version="1.0" standalone="no"?>
<!DOCTYPE svg PUBLIC "-//W3C//DTD SVG 20010904//EN"
 "http://www.w3.org/TR/2001/REC-SVG-20010904/DTD/svg10.dtd">
<svg version="1.0" xmlns="http://www.w3.org/2000/svg"
 width="16.000000pt" height="16.000000pt" viewBox="0 0 16.000000 16.000000"
 preserveAspectRatio="xMidYMid meet">
<metadata>
Created by potrace 1.11, written by Peter Selinger 2001-2013
</metadata>
<g transform="translate(0.000000,16.000000) scale(0.001932,-0.001932)"
fill="#000000" stroke="none">
<path d="M1394 8248 c-9 -18 -20 -35 -23 -38 -3 -3 -13 -18 -21 -35 -8 -16
-17 -32 -20 -35 -12 -12 -70 -112 -70 -121 0 -5 -4 -9 -9 -9 -5 0 -13 -9 -16
-20 -4 -11 -22 -44 -41 -73 -19 -28 -34 -57 -34 -64 0 -7 -6 -16 -12 -20 -7
-4 -24 -29 -38 -55 -13 -27 -28 -48 -33 -48 -4 0 -5 -4 -2 -10 3 -5 1 -10 -4
-10 -6 0 -11 -4 -11 -9 0 -5 -18 -38 -40 -72 -22 -35 -45 -73 -50 -84 -6 -11
-20 -36 -33 -56 -12 -20 -49 -81 -81 -135 -32 -54 -73 -121 -91 -149 -17 -27
-44 -72 -60 -100 -15 -27 -35 -58 -43 -67 -8 -10 -11 -18 -6 -18 5 0 4 -4 -1
-8 -12 -8 -175 -280 -175 -291 0 -4 -9 -16 -20 -26 -11 -10 -20 -26 -20 -37 0
-10 -4 -18 -8 -18 -5 0 -18 -19 -31 -42 -12 -24 -30 -55 -39 -70 -65 -105
-162 -272 -162 -279 0 -5 -4 -9 -10 -9 -5 0 -10 -4 -10 -9 0 -4 -25 -48 -55
-97 -30 -49 -58 -96 -62 -104 -3 -8 -11 -21 -17 -29 -13 -17 -17 -41 -6 -41 4
0 10 -8 14 -17 5 -16 41 -70 64 -98 5 -6 33 -46 63 -90 30 -44 56 -82 59 -85
3 -3 38 -54 79 -115 41 -60 78 -111 83 -113 4 -2 8 -9 8 -16 0 -7 9 -21 20
-31 11 -10 20 -23 20 -29 1 -6 14 -27 30 -46 17 -19 30 -40 30 -47 0 -7 3 -13
8 -13 4 0 18 -18 32 -40 14 -22 28 -40 32 -40 5 0 8 -7 8 -15 0 -8 5 -15 10
-15 6 0 10 -5 10 -11 0 -6 14 -28 30 -49 17 -21 30 -42 30 -48 0 -6 4 -12 8
-14 8 -3 121 -162 147 -206 6 -10 22 -33 36 -52 14 -19 57 -80 94 -135 156
-228 220 -321 227 -330 29 -35 136 -195 131 -195 -3 0 4 -8 15 -19 12 -10 22
-23 22 -29 0 -6 4 -12 9 -14 5 -1 17 -17 27 -35 11 -17 53 -79 94 -138 41 -59
82 -118 90 -130 8 -13 30 -45 49 -71 19 -27 57 -83 84 -124 28 -41 53 -77 57
-80 3 -3 17 -23 30 -45 13 -22 27 -42 30 -45 3 -3 35 -48 71 -100 35 -52 67
-96 71 -98 5 -2 8 -8 8 -13 0 -6 8 -19 18 -30 11 -10 25 -32 33 -47 8 -15 17
-29 20 -32 4 -3 31 -41 61 -85 152 -224 213 -310 220 -313 4 -2 8 -10 8 -17 0
-7 3 -15 8 -17 4 -1 30 -37 57 -78 28 -41 52 -77 55 -80 3 -3 19 -25 36 -50
47 -69 144 -210 179 -260 17 -25 71 -103 120 -175 49 -71 93 -131 97 -133 4
-2 8 -9 8 -16 0 -7 8 -21 18 -32 16 -18 124 -173 147 -211 6 -9 20 -28 33 -42
12 -14 22 -31 22 -38 0 -7 5 -13 10 -13 6 0 10 -6 10 -14 0 -8 4 -16 8 -18 7
-3 158 -218 187 -266 6 -9 13 -19 16 -22 3 -3 25 -34 49 -70 24 -36 46 -67 49
-70 3 -3 11 -12 16 -22 6 -9 28 -42 50 -75 23 -32 76 -110 120 -173 43 -63 96
-139 117 -170 22 -30 60 -86 86 -125 26 -38 51 -75 57 -82 10 -11 135 -191
165 -237 76 -118 105 -154 117 -144 7 6 13 17 13 24 0 8 4 14 8 14 4 0 16 15
27 33 10 17 21 34 24 37 4 3 27 37 53 75 26 39 79 117 119 175 39 58 99 146
133 195 33 50 63 92 66 95 3 3 23 32 45 65 22 33 42 62 45 65 3 3 20 28 38 55
17 28 35 55 40 61 5 5 22 30 38 55 16 24 33 49 37 54 28 35 137 198 137 205 0
6 5 10 10 10 6 0 14 8 17 18 7 16 100 153 122 179 6 7 11 16 11 21 0 5 9 17
20 27 11 10 20 22 20 27 0 5 6 16 13 23 25 29 37 44 37 49 0 9 113 171 127
183 8 6 14 14 13 17 0 4 6 16 15 29 107 152 145 210 145 218 0 5 3 9 8 9 4 0
20 23 37 50 16 28 32 50 36 50 4 0 10 8 14 19 3 10 14 29 25 41 11 12 34 46
52 74 18 28 35 53 39 56 3 3 12 16 19 29 7 14 17 30 22 35 5 6 49 70 98 141
49 72 93 135 97 140 5 6 19 27 32 48 13 21 28 43 34 50 7 7 39 53 72 102 33
49 86 127 117 172 32 45 58 85 58 88 0 4 6 12 13 19 6 7 77 108 157 225 221
323 298 435 307 446 5 6 19 27 32 48 13 21 28 43 34 50 7 7 19 24 27 39 8 14
25 38 38 54 12 16 41 58 64 94 24 36 45 67 48 70 3 3 39 55 80 115 41 61 77
112 82 113 4 2 8 10 8 17 0 8 6 20 14 28 8 7 49 65 92 128 42 63 92 135 110
160 19 26 34 52 34 58 0 6 4 11 8 11 5 0 17 16 28 35 10 19 21 35 24 35 3 0
14 15 25 33 10 17 23 37 28 42 4 6 16 22 25 37 55 85 166 244 173 246 5 2 9 9
9 16 0 7 11 25 25 40 14 15 25 31 25 36 0 5 6 15 13 22 6 7 39 54 72 103 33
50 62 92 66 95 12 12 69 102 69 111 0 5 4 9 8 9 4 0 24 25 43 55 18 30 37 55
42 55 4 0 7 7 7 15 0 8 5 15 10 15 6 0 10 7 10 15 0 8 3 15 8 15 4 0 20 23 37
50 16 28 32 50 35 50 4 0 12 11 18 25 10 22 9 30 -7 53 -10 15 -45 70 -76 122
-71 116 -92 149 -138 221 -20 31 -41 68 -48 82 -7 15 -16 27 -21 27 -4 0 -8 4
-8 9 0 5 -67 118 -150 251 -82 133 -150 244 -150 246 0 3 -5 10 -11 17 -15 17
-75 115 -101 165 -12 23 -26 42 -30 42 -4 0 -8 4 -8 9 0 5 -70 126 -156 268
-86 142 -168 278 -182 303 -13 25 -35 59 -48 77 -13 17 -24 34 -24 37 0 3 -36
65 -80 137 -44 73 -80 136 -80 140 0 5 -4 9 -10 9 -5 0 -10 4 -10 9 0 6 -12
30 -27 55 l-28 45 -2722 1 -2722 0 -17 -32z"/>
</g>
</svg>
