<svg xmlns="http://www.w3.org/2000/svg" width="640.992" height="69.472" viewBox="0 0 640.992 69.472">
  <path fill="#4ba94f" d="M0 64.088c.51-.072 1.018-.18 1.53-.207.797-.04 1.608.05 2.395-.05 1.308-.17 2.536-.09 3.76.47.447.21 1.047.16 1.57.12 1.224-.09 2.44-.33 3.666-.36 1.76-.04 3.52.14 5.27.03 1.3-.07 2.57-.64 3.85-.63.86.02 1.96-.14 2.64.88.2.29.94.5 1.28.37 1.02-.39 2.03-.15 3.04-.24.93-.09 1.85-.36 2.77-.53.27-.05.56-.04.83-.05.49-.01.98-.04 1.47-.01.35.02.73.07 1.04.22.67.33 1.29.7 2 .04.15-.13.5-.06.75-.07.76-.01 1.53.07 2.27-.06.7-.12 1.24-.52 1.92.29.31.36 1.48.28 2.07.01.51-.24.86-.35 1.43-.28.91.12 1.85 0 2.77.05.57.04 1.13.22 1.7.34.08.02.15.07.22.06.7-.08 1.39-.18 2.09-.25.58-.06 1.17-.12 1.75-.15 1.24-.08 1.24-.07 1.42-1.28.79 0 .99-.47.93-1.19-.05-.56.23-.83.83-.81.84.04 1.69.03 2.54.01.48-.02.73.13.71.64-.03.61.48.69.76.48.48-.36.82-.91 1.2-1.39.07-.09.03-.29.1-.36.79-.7 1.27-1.79 2.66-1.69 1.66.12 3.33.01 5 .04 1.69.03 3.37.11 5.05.18.39.01.74.02.74-.51 0-.08 0-.19.05-.22 1.06-.77.33-1.34-.21-1.94-.38-.42-.55-2.04-.15-2.37.27-.22.79-.21 1.2-.19.14 0 .38.32.4.51.17 1.69.32 3.39.43 5.08.04.48.15.76.69.81.57.06.76-.33.78-.72.05-1.09.08-2.2 0-3.29-.07-1.05.05-1.31 1.06-1.33 3.64-.08 7.27-.14 10.9-.2 1.02-.01 1.07-.05 1.09-1.09.02-1.24.02-1.26 1.26-1.25 1.36.02 2.71.05 4.07.08.1 0 .23-.03.31.02.86.56 1.24.22 1.35-.69.01-.13.2-.32.34-.35.54-.12 1.09-.26 1.64-.28 1.64-.03 3.28-.02 4.92-.01 1.09.01 1.22.15 1.23 1.25 0 .56.01 1.13.02 1.69.01.54.3.8.82.81.51.02 1.03-.03 1.54.04.43.06.84.25 1.29.38-.45.99-.58 1.78-.13 2.6.1.19.06.45.06.68 0 2.08.02 4.16-.01 6.23-.01.6.18.82.79.82.61 0 1.22.17 1.82.17.86-.01 1.72-.11 2.58-.16.16-.01.35-.07.46 0 1.21.74 2.4.26 3.61.01.63-.13.98-.31.92-1.02-.09-.94-.16-1.88-.14-2.82.01-.21.43-.54.69-.58.66-.08 1.33.02 1.99-.04 1.28-.12 2.55-.28 3.82-.49.16-.02.36-.39.38-.62.05-.63.02-1.27.02-1.94.33-.12.63-.23.96-.34.29.38-.03 1.2.85 1.11.6-.05 1.27.15 1.39-.56l1.25 1-.04.35c-.09.83.21 1.17 1.03 1.17 2.23.01 4.46.01 6.69 0 .23 0 .45-.02.79-.04l1.17-11.3c1.04.01 1.07.01 1.11-.97.02-.54.23-.69.75-.69 1 0 1.99-.05 2.98-.14.7-.06.86-.56.85-1.2-.02-3.15-.01-6.31-.01-9.46v-.93h5.14c0 .59.02 1.18-.01 1.76-.02.47.15.67.62.64.23-.01.47.03.69 0 .75-.09 1.2.05 1.17.99-.02.55.42.95 1.07.95 1.76-.01 3.52.02 5.28-.02.24 0 .66-.32.66-.5.01-.71.4-.93.99-1.01.08-.01.15-.06.22-.06 1.49-.11 3.01-.44 4.47-.27 1.61.19 3.21.19 4.81.28.18.01.49.33.49.5 0 .99-.04 1.99-.14 2.98-.06.58.05.9.7.86.44-.02.88-.03 1.31.01.74.07 1.15-.16 1-1.07.94-.32 1.87-.63 2.79-.96.89-.32 1.77-.64 2.65-.99.46-.18.57-.57.57-1.05-.02-2.15-.04-4.31.01-6.46.03-1.27.2-2.53.3-3.79.01-.1.02-.21 0-.31-.23-1.03-.26-1.9 1.04-2.3.61-.19.42-.9.35-1.36-.11-.77.29-1.19.82-1.58.2-.15.5-.23.63-.42.51-.77.87-.46 1.31.07.34.42.8.75 1.13 1.17.14.19.14.53.13.8-.04.89.24 1.5 1.17 1.78.23.07.47.53.49.82.06 1.12.02 2.25.02 3.38 0 .84 1.1 1.57 1.93 1.38.97-.23 1.97-.35 2.96-.52.37-.06.75-.18 1.12-.15.4.03.8.16 1.18.31 1.28.49 2.53 1.05 3.82 1.5.85.3 1.75.43 2.61.68.3.09.57.32.77.44-.4 1.12-.12 2.21-.19 3.24.1.06.14.11.19.11 2.48.13 4.96.34 7.44.33 1.42 0 2.73.26 4.05.73 1.81.64 3.63 1.23 5.44 1.85.56.19 1.04.32.78 1.21-.2.67.11 1.47.11 2.22.02 2.64.01 5.28.01 7.92 0 2.61 0 5.21-.01 7.82 0 .46.11.73.63.73 1-.01 2 0 3 .02.55.01.62-.34.62-.76 0-2.15.01-4.3-.02-6.46-.01-1.11 0-1.14 1.07-1.15 2.15-.01 2.1.33 2.1-2.12-.01-4.69.01-9.38-.02-14.07 0-.77.25-1.08 1.01-1.02.7.05.96-.37.97-.99.01-1.2.01-2.41.01-3.61.01-1.12.23-1.32 1.34-1.33.64-.01 1.28-.04 1.91-.09.54-.035.74-.35.73-.88-.02-1.125.01-2.253-.01-3.38-.01-.51.17-.66.69-.76.55-.11 1.07-.485 1.56-.814 1.73-1.16 3.43-2.36 5.15-3.53.58-.394 1.16-.814 1.81-1.094.34-.15.86-.15 1.21 0 .59.24 1.1.68 1.68.99.26.14.63.29.87.21.17-.06.29-.506.29-.78.02-2.18.01-4.36.01-6.54V4.1c0-.9.3-1.17 1.17-1.25.92-.09 1.84-.25 2.75-.37 1.08-.136 2.16-.26 3.23-.39 1.65-.2 3.31-.397 4.96-.615.62-.08 1.23-.295 1.84-.304.68-.01 1.23-.04 1.2-.69.42.13.84.4 1.24.37 1.95-.11 3.9-.32 5.86-.46 1.744-.13 3.5-.32 5.25-.29 1.53.03 3.06.34 4.6.51.91.1 1.83.15 2.74.26.62.07 1.23.2 1.9.32.02.39.055.74.055 1.09V28.5c0 1.14 0 1.044 1.14 1.04 1.77-.02 3.55.1 5.33.2.8.04 1.61.15 2.41.31.18.04.43.39.44.61.05.97.03 1.945.02 2.92-.01.53.18.86.72.95.125.02.23.14.34.216-.08.11-.16.3-.26.314-.55.08-.54.48-.49.87.08.6-.354 1.38.58 1.71-.7.316-.844 1.697-.426 2.29-.05.56-.19.967-.08 1.29.05.17.54.28.827.27 2.16-.05 4.32-.15 6.48-.21.32-.004.65.09.96.18.73.215 1.24-.15 1.26-.93.01-.41 0-.82 0-1.23.01-.71.35-1.07 1.07-1.08 1.155-.02 2.31-.04 3.46.01.72.03 1.43.194 2.146.29.42.06.617-.155.63-.56.01-.336.03-.67.03-1V9.63c0-1.188.01-1.17 1.21-1.21 1.46-.05 2.93-.16 4.4-.255.5-.03.7-.33.7-.817-.01-.74.02-1.486-.01-2.23-.02-.56.23-.76.77-.803 2.25-.18 4.52-.24 6.73-.62 2.62-.45 5.26-.47 7.89-.64.9-.06 1.81-.27 2.71-.22 1.36.077 2.71.315 4.06.49 1.02.134 2.05.367 3.07.386.78.02.98.39 1.01 1.01.02.56.03 1.13 0 1.69-.03.52.19.74.7.79 1.56.15 3.13.35 4.69.52.56.06.82.27.82.92-.03 8.66-.01 17.33-.03 25.99-.01 1.06-.16 2.12-.26 3.18-.07.65.24.86.85.85 2.51-.01 5.02.01 7.53-.01 1.02-.01 2.04-.12 3.06-.14.46-.01.66-.18.67-.62 0-.23.01-.46.03-.69.09-1.65.17-3.3.3-4.94.02-.2.35-.52.55-.53 2.62-.13 5.243-.27 7.87-.27 1.14 0 2.28.33 3.42.51.05.01.1.02.15.02 1.17.07 2.34.13 3.514.2.61.04.87-.23.93-.84.08-.85.26-1.7.41-2.68 1.05 0 2.15-.07 3.24.02 1.28.11 2.17-.63 3.1-1.27.83-.57 1.58-1.27 2.4-1.86.227-.16.637-.23.89-.15.81.27 1.54.6 2.2-.32.22-.3.61-.23.7.26.11.55.26 1.1.32 1.65.11.87.69 1.2 1.43 1.19 1.92-.02 3.84-.09 5.75-.19.28-.01.58-.2.806-.39.88-.75 1.75-1.52 2.59-2.31.5-.47.78-.32 1.16.15.74.92 1.56 1.77 2.32 2.67.18.22.36.49.39.76.146 1.27.24 2.55.35 3.81.06.05.1.11.14.11 1.85.14 1.7.91 1.384 2.13-.16.6-.08 1.26-.08 1.9-.01 2.28-.02 4.56.01 6.84 0 .59.1 1.19.22 1.76.04.18.3.42.49.44 1.1.14 2.21.26 3.33.31 1.14.05 1.19-.03 1.19-1.22 0-2.41-.01-4.82 0-7.23 0-.41-.13-.89.55-.98.12-.02.24-.46.25-.71.02-1.31-.01-2.62.03-3.92.01-.36.21-.71.31-1.06.08-.29.21-.58.22-.87.03-.92.01-1.85.01-2.77 0-.57-.1-1.14.47-1.59.18-.14.18-.56.185-.85.03-1.17.72-2.16 1.78-2.53.05-.02.12-.06.14-.04 1.23.88 2.11-.4 3.18-.53.93-.11 1.72.06 2.52.59.4.27.99.33 1.49.32.16 0 .29-.54.48-.8.87-1.19.39-2.56.545-3.85.03-.22.27-.45.47-.59.37-.26.8-.43 1.17-.69.58-.4 1.04-.45 1.61.12.25.24.94.31 1.27.14 1.81-.94 1.38-.78 2.99.37.18.13.36.38.54.37.876-.02.82.55.82 1.13-.002 5.72-.032 11.43.018 17.15.02 2.06-.06 4.11-.03 6.17.03 2.1.01 4.21.01 6.31v6.3c0 1.06.1 1.2 1.19 1.19 2.02-.01 4.04-.09 6.06-.1.53-.01.56-.31.587-.69.1-1.54.1-1.54 1.67-1.54.54 0 1.08-.03 1.61.01.58.04.78-.22.74-.77-.02-.25-.01-.51-.01-.77v-32.4c0-1.07 0-1.07 1.09-1.18.1-.01.26.01.3-.04.545-.91 1.35-.43 2.08-.42 1.69.03 3.39.09 5.076-.01 2.87-.15 5.72-.54 8.59-.6 1.89-.03 3.79.34 5.69.54.768.08 1.53.14 2.29.23 1.41.19 2.82.39 4.228.6.4.07.77.28 1.16.31.6.04.94-.4.72-.95-.22-.54-.57-1.03-.8-1.57-.13-.3-.12-.67-.18-1l.19-.14c.51.38 1 .77 1.52 1.13.17.12.39.21.58.2.09 0 .25-.27.24-.41-.06-1.03-.16-2.06-.25-3.08-.002-.06-.07-.17-.12-.18-.8-.12-.68-.81-.81-1.33-.04-.18-.01-.45.107-.57.83-.85 1.98-.61 2.59.41.25.42.69.78 1.13.99.478.23.78-.1.96-.59.28-.78 1.27-1.43 1.98-1.33.22.03.42.14.6.2-.17.99-.32 1.91-.48 2.82-.03.17-.11.33-.14.5-.05.37-.23.87-.06 1.07.17.21.69.17 1.06.16.335 0 .67-.1 1-.16-.09.35-.15.71-.27 1.04-.35 1-.81 1.97-1.054 2.99-.15.64.04 1.35.04 2.03.01 3.92.04 7.85-.01 11.77-.03 1.85.6 1.7 1.77 1.68.15 0 .3-.03.45-.04.38 1.04.38 1 1.57 1.06 1.342.07 2.75-.01 4 .38 1.274.4 2.59.46 3.842.84.16.05.34.3.37.47.06.35.02.71.02 1.07.003.82.52 1.39 1.35 1.46 1.47.12 2.95.19 4.42.37 1.49.18 2.97.47 4.524.72.1 1.07.27 2.14.3 3.22.11 4.04.17 8.08.237 12.12.01.59.21.81.81.8 1.4-.04 2.81-.01 4.44-.01 0 1.37-.02 2.59 0 3.8.02.9.29 1.18 1.07 1.04.57-.1 1.13-.3 1.66-.54.16-.07.26-.43.26-.66.03-1.23 0-2.46.01-3.69.01-.62-.24-.92-.87-.83-.7.1-.95-.17-.92-.9.06-1.08.05-2.16.01-3.23-.02-.63.23-.79.81-.78 1.977.02 3.95.01 5.92 0 .99 0 1.13-.17 1.03-1.11-.03-.33-.03-.66-.01-.99.04-.69.26-1.11 1.11-1.11 4.18 0 8.35-.07 12.53-.09.74-.01 1.48.08 2.22.1.53.02.81.29.8.81-.02.74.4.9 1.03.9 2.1-.01 4.2-.03 6.3.02 1.31.03 2.62.16 3.92.3.92.09 1.06.41.76 1.62.61.13 1.23.22 1.81.4.22.063.5.32.52.51.12.96.21 1.93.19 2.9-.01.32-.38.63-.58.95-.1.15-.27.31-.26.46.03.81.15 1.62.16 2.43 0 .57.28.83.77.83.82 0 1.64-.05 2.45-.15.16-.02.41-.35.4-.53-.03-.86.53-.94 1.15-.95.85-.01 1.69-.02 2.54 0 .55.02.8-.19.77-.76-.024-.533-.01-1.072 0-1.61.01-.49.235-.744.77-.73.87.02 1.74-.03 2.61.02.68.04.91-.244.91-.89-.01-2 .03-4-.02-6-.015-.77.204-1.03 1-1.02 3.43.04 6.864.02 10.3.016.93 0 1.01-.07 1.02-.993.01-1.2 0-2.4 0-3.59 2.66-.98 5.14.22 7.633.3v2.84c0 1.12.02 1.06 1.09 1.16 1.16.11 2.32.38 3.48.56.48.07.97.08 1.45.133 1.2.13 2.4.26 3.596.41 1.53.2 3.05.43 4.57.64.18.02.39.1.53.03 1.46-.72 3.02-.237 4.53-.4.43-.05.87-.17 1.25-.366.66-.34.95-.23.98.54.03.66.01 1.32.01 1.91 1.07.06 2.054.14 3.04.15.71.01 1.43-.15 2.13-.09.622.057 1.124-.1 1.7-.303.473-.17 1.174-.29 1.61.32.05.07.19.11.28.1.97-.126 1 .48.97 1.19-.04.716-.05 1.44.02 2.15.01.204.33.545.51.544 2.79-.02 5.58-.093 8.37-.12 1.53-.02 3.07.03 4.6.06.47.006.94-.003 1.41.038 1.1.1 2.21.2 3.31.34 1.11.145 2.213.36 3.33.5.66.09 1.33.07 1.99.13.26.03.512.16.77.25v13.2H0v-5.4z"/>
</svg>
